<svg width="44" height="44" viewBox="0 0 44 44" fill="none" xmlns="http://www.w3.org/2000/svg">
<path d="M22.2454 21.7968C22.2106 21.8157 22.1873 21.8283 22.1524 21.8472C22.088 21.867 22.0066 21.9111 21.9432 21.9605C18.5153 23.6813 14.5342 22.4094 12.7655 19.1427C10.9652 15.818 12.2072 11.6427 15.5319 9.84246C18.8566 8.04219 23.0319 9.28415 24.8322 12.6089C26.5893 15.8818 25.467 19.9171 22.2803 21.778C22.2687 21.7842 22.2571 21.7905 22.2454 21.7968ZM16.4761 11.5862C14.1162 12.864 13.2314 15.8387 14.5092 18.1985C15.7681 20.5235 18.5951 21.4132 20.9525 20.2419C21.0043 20.1988 21.1671 20.1107 21.3245 20.0405C23.5463 18.7021 24.3231 15.8611 23.0884 13.5531C21.8106 11.1932 18.836 10.3084 16.4761 11.5862Z" fill="white"/>
<path d="M29.1368 34.4968C26.8583 35.7306 24.2534 36.3894 21.8918 36.1648C19.6968 35.9702 18.0202 34.9839 17.1579 33.3912C16.2955 31.7986 16.3796 29.8439 17.41 27.8878C19.6449 23.686 25.2946 20.6268 30.0115 21.0644C32.1949 21.2652 33.8831 22.2453 34.7455 23.8379C35.6078 25.4305 35.5238 27.3853 34.4933 29.3414C33.379 31.4481 31.4152 33.2631 29.1368 34.4968ZM19.168 28.8301C18.4549 30.1784 18.3666 31.4589 18.9079 32.4587C19.4429 33.4468 20.5752 34.0664 22.0762 34.2008C26.022 34.5748 30.9045 31.9311 32.7479 28.4223C33.461 27.074 33.5494 25.7935 33.008 24.7937C32.473 23.8056 31.3407 23.186 29.8398 23.0516C25.9002 22.6892 21.0177 25.333 19.168 28.8301Z" fill="white"/>
</svg>
